<?xml version="1.0" standalone="no"?>
<!DOCTYPE svg PUBLIC "-//W3C//DTD SVG 20010904//EN"
 "http://www.w3.org/TR/2001/REC-SVG-20010904/DTD/svg10.dtd">
<svg version="1.0" xmlns="http://www.w3.org/2000/svg"
 width="300.000000pt" height="300.000000pt" viewBox="0 0 300.000000 300.000000"
 preserveAspectRatio="xMidYMid meet">
<metadata>
Created by potrace 1.14, written by Peter Selinger 2001-2017
</metadata>
<g transform="translate(0.000000,300.000000) scale(0.100000,-0.100000)"
fill="#000000" stroke="none">
<path d="M1375 2801 c-11 -4 -49 -11 -85 -15 -78 -9 -194 -37 -292 -72 -90
-32 -246 -109 -272 -134 -19 -19 -19 -20 28 -97 26 -43 55 -89 65 -102 l18
-24 99 51 c129 66 233 99 392 126 l32 6 0 -1164 c0 -984 2 -1165 14 -1175 9
-8 50 -11 117 -9 99 3 104 4 116 28 10 19 13 146 13 543 l0 517 520 0 520 0 0
-24 c0 -43 -30 -185 -57 -264 -58 -174 -155 -327 -295 -465 -49 -48 -88 -94
-86 -102 6 -28 131 -175 149 -175 27 0 180 150 258 253 114 151 215 364 256
542 41 178 54 344 34 464 -57 361 -147 569 -341 794 -86 100 -150 157 -175
157 -19 0 -109 -94 -148 -153 l-18 -28 73 -72 c126 -125 216 -257 271 -401 32
-83 69 -216 69 -248 0 -17 -22 -18 -517 -18 l-518 0 3 498 2 499 58 -9 c103
-15 205 -49 331 -110 68 -33 128 -57 135 -55 12 5 126 183 126 197 0 37 -266
159 -435 200 -157 38 -414 61 -460 41z"/>
<path d="M470 2378 c-241 -242 -368 -508 -416 -872 -15 -112 -15 -144 -5 -240
33 -299 128 -547 292 -763 78 -102 231 -253 258 -253 20 0 151 157 151 182 0
10 -35 51 -78 92 -409 391 -483 1020 -175 1488 44 66 112 147 191 224 23 23
42 48 42 56 0 8 -30 49 -66 91 -47 55 -73 77 -90 77 -15 0 -49 -27 -104 -82z"/>
</g>
</svg>
